<?xml version="1.0" standalone="no"?>
 <!DOCTYPE svg PUBLIC "-//W3C//DTD SVG 1.1//EN" 
 "http://www.w3.org/Graphics/SVG/1.1/DTD/svg11.dtd"> 
<svg xmlns="http://www.w3.org/2000/svg" version="1.1" 
    width="29.7002cm" height="21.0007cm" viewBox="0 0 116930 82680 ">
<title>SVG Picture created as helios-F_SilkS.svg date 2019/08/17 09:36:20 </title>
  <desc>Picture generated by PCBNEW </desc>
<g style="fill:#000000; fill-opacity:1;stroke:#000000; stroke-opacity:1;
stroke-linecap:round; stroke-linejoin:round; "
 transform="translate(0 0) scale(1 1)">
</g>
<g style="fill:#000000; fill-opacity:0.0; 
stroke:#000000; stroke-width:-0.000393701; stroke-opacity:1; 
stroke-linecap:round; stroke-linejoin:round;">
</g>
<g style="fill:#000000; fill-opacity:0.0; 
stroke:#000000; stroke-width:47.2441; stroke-opacity:1; 
stroke-linecap:round; stroke-linejoin:round;">
<path d="M64370 36811
L63976 36811
" />
<path d="M64370 37598
L64370 36811
" />
<path d="M69881 37598
L64370 37598
" />
<path d="M69881 36811
L69881 37598
" />
<path d="M70275 36811
L69881 36811
" />
<path d="M70275 40354
L70275 36811
" />
<path d="M69881 40354
L70275 40354
" />
<path d="M69881 39566
L69881 40354
" />
<path d="M64370 39566
L69881 39566
" />
<path d="M70275 38976
L63976 38976
" />
<path d="M70275 38188
L70275 38976
" />
<path d="M63976 38188
L70275 38188
" />
<path d="M64370 40354
L64370 39566
" />
<path d="M63976 40354
L64370 40354
" />
<path d="M63976 36811
L63976 40354
" />
<path d="M64566 34547
L65157 34547
" />
<path d="M66141 34055
L66141 32283
" />
<path d="M65157 31791
L64566 31791
" />
<path d="M63582 32283
L63582 34055
" />
<path d="M63779 23692
L63779 23318
" />
<path d="M63779 21433
L63779 21807
" />
<path d="M64141 23318
L64141 21807
" />
<path d="M63417 23318
L64141 23318
" />
<path d="M63417 21807
L63417 23318
" />
<path d="M64141 21807
L63417 21807
" />
<path d="M64401 22291
L64401 23803
" />
<path d="M65125 22291
L65125 23803
" />
<path d="M66566 24015
L66322 24015
" />
<circle cx="66929.1" cy="24015.7" r="362.205" /> 
<circle cx="68897.6" cy="22637.8" r="362.205" /> 
<path d="M68535 22637
L68291 22637
" />
<circle cx="68897.6" cy="24015.7" r="362.205" /> 
<path d="M68535 24015
L68291 24015
" />
<circle cx="68897.6" cy="21259.8" r="362.205" /> 
<path d="M68535 21259
L68291 21259
" />
<path d="M64566 41535
L64173 41535
" />
<path d="M64566 42322
L64566 41535
" />
<path d="M70078 42322
L64566 42322
" />
<path d="M70078 41535
L70078 42322
" />
<path d="M70472 41535
L70078 41535
" />
<path d="M70472 45078
L70472 41535
" />
<path d="M70078 45078
L70472 45078
" />
<path d="M70078 44291
L70078 45078
" />
<path d="M64566 44291
L70078 44291
" />
<path d="M70472 43700
L64173 43700
" />
<path d="M70472 42913
L70472 43700
" />
<path d="M64173 42913
L70472 42913
" />
<path d="M64566 45078
L64566 44291
" />
<path d="M64173 45078
L64566 45078
" />
<path d="M64173 41535
L64173 45078
" />
<path d="M50196 29330
L50196 21456
" />
<path d="M60826 21456
L54133 21456
" />
<path d="M60826 29330
L60826 21456
" />
<path d="M54133 29330
L60826 29330
" />
<path d="M54133 29330
L49409 29330
" />
<path d="M54133 21456
L54133 29330
" />
<path d="M49409 21456
L54133 21456
" />
<path d="M49409 29330
L49409 21456
" />
<path d="M50196 37204
L50196 29330
" />
<path d="M60826 29330
L54133 29330
" />
<path d="M60826 37204
L60826 29330
" />
<path d="M54133 37204
L60826 37204
" />
<path d="M54133 37204
L49409 37204
" />
<path d="M54133 29330
L54133 37204
" />
<path d="M49409 29330
L54133 29330
" />
<path d="M49409 37204
L49409 29330
" />
<path d="M50196 45078
L50196 37204
" />
<path d="M60826 37204
L54133 37204
" />
<path d="M60826 45078
L60826 37204
" />
<path d="M54133 45078
L60826 45078
" />
<path d="M54133 45078
L49409 45078
" />
<path d="M54133 37204
L54133 45078
" />
<path d="M49409 37204
L54133 37204
" />
<path d="M49409 45078
L49409 37204
" />
<path d="M59645 42125
L61757 42125
" />
<path d="M59645 42125
L59645 42913
" />
<path d="M56496 42913
L59645 42913
" />
<path d="M56496 42125
L56496 42913
" />
<path d="M54383 42125
L56496 42125
" />
<path d="M54383 25196
L54383 42125
" />
<path d="M61757 25196
L54383 25196
" />
<path d="M61757 42125
L61757 25196
" />
<path d="M62598 29102
L62598 29346
" />
<circle cx="62598.4" cy="28740.2" r="362.205" /> 
<circle cx="67913.4" cy="27480.3" r="2401.57" /> 
<path d="M65093.9 27910 A1023.62 1023.62 0.0 0 0 63346.5 28633.9 " />
<path d="M63346.5 28633.9 A1023.62 1023.62 0.0 0 0 65093.9 29357.7 " />
<path d="M65098 29342
L65098 27925
" />
</g>
<g style="fill:#000000; fill-opacity:0.0; 
stroke:#000000; stroke-width:59.0551; stroke-opacity:1; 
stroke-linecap:round; stroke-linejoin:round;">
<path d="M66601 39548
L66469 39360
" />
<path d="M66376 39548
L66376 39154
L66526 39154
L66563 39173
L66582 39191
L66601 39229
L66601 39285
L66582 39323
L66563 39341
L66526 39360
L66376 39360
" />
<path d="M66769 39341
L66901 39341
" />
<path d="M66957 39548
L66769 39548
L66769 39154
L66957 39154
" />
<path d="M67257 39341
L67125 39341
" />
<path d="M67125 39548
L67125 39154
L67313 39154
" />
<path d="M67519 39154
L67519 39248
" />
<path d="M67425 39210
L67519 39248
L67613 39210
" />
<path d="M67463 39323
L67519 39248
L67575 39323
" />
<path d="M67819 39154
L67819 39248
" />
<path d="M67725 39210
L67819 39248
L67913 39210
" />
<path d="M67763 39323
L67819 39248
L67875 39323
" />
<path d="M66713 33694
L66526 33825
" />
<path d="M66713 33919
L66319 33919
L66319 33769
L66338 33731
L66357 33712
L66394 33694
L66451 33694
L66488 33712
L66507 33731
L66526 33769
L66526 33919
" />
<path d="M66507 33525
L66507 33394
" />
<path d="M66713 33338
L66713 33525
L66319 33525
L66319 33338
" />
<path d="M66507 33038
L66507 33169
" />
<path d="M66713 33169
L66319 33169
L66319 32981
" />
<path d="M66319 32775
L66413 32775
" />
<path d="M66376 32869
L66413 32775
L66376 32681
" />
<path d="M66488 32831
L66413 32775
L66488 32719
" />
<path d="M66319 32475
L66413 32475
" />
<path d="M66376 32569
L66413 32475
L66376 32381
" />
<path d="M66488 32531
L66413 32475
L66488 32419
" />
<path d="M64713 23087
L64526 23219
" />
<path d="M64713 23312
L64319 23312
L64319 23162
L64338 23125
L64357 23106
L64394 23087
L64451 23087
L64488 23106
L64507 23125
L64526 23162
L64526 23312
" />
<path d="M64507 22919
L64507 22787
" />
<path d="M64713 22731
L64713 22919
L64319 22919
L64319 22731
" />
<path d="M64507 22431
L64507 22562
" />
<path d="M64713 22562
L64319 22562
L64319 22375
" />
<path d="M64319 22169
L64413 22169
" />
<path d="M64376 22263
L64413 22169
L64376 22075
" />
<path d="M64488 22225
L64413 22169
L64488 22113
" />
<path d="M64319 21869
L64413 21869
" />
<path d="M64376 21963
L64413 21869
L64376 21775
" />
<path d="M64488 21925
L64413 21869
L64488 21813
" />
<path d="M65697 23572
L65510 23703
" />
<path d="M65697 23797
L65304 23797
L65304 23647
L65322 23609
L65341 23590
L65379 23572
L65435 23572
L65472 23590
L65491 23609
L65510 23647
L65510 23797
" />
<path d="M65491 23403
L65491 23272
" />
<path d="M65697 23215
L65697 23403
L65304 23403
L65304 23215
" />
<path d="M65491 22916
L65491 23047
" />
<path d="M65697 23047
L65304 23047
L65304 22859
" />
<path d="M65304 22653
L65397 22653
" />
<path d="M65360 22747
L65397 22653
L65360 22559
" />
<path d="M65472 22709
L65397 22653
L65472 22597
" />
<path d="M65304 22353
L65397 22353
" />
<path d="M65360 22447
L65397 22353
L65360 22259
" />
<path d="M65472 22409
L65397 22353
L65472 22297
" />
<path d="M65904 24949
L65772 24762
" />
<path d="M65679 24949
L65679 24556
L65829 24556
L65866 24574
L65885 24593
L65904 24631
L65904 24687
L65885 24724
L65866 24743
L65829 24762
L65679 24762
" />
<path d="M66072 24743
L66204 24743
" />
<path d="M66260 24949
L66072 24949
L66072 24556
L66260 24556
" />
<path d="M66560 24743
L66429 24743
" />
<path d="M66429 24949
L66429 24556
L66616 24556
" />
<path d="M66822 24556
L66822 24649
" />
<path d="M66729 24612
L66822 24649
L66916 24612
" />
<path d="M66766 24724
L66822 24649
L66879 24724
" />
<path d="M67122 24556
L67122 24649
" />
<path d="M67029 24612
L67122 24649
L67216 24612
" />
<path d="M67066 24724
L67122 24649
L67179 24724
" />
<path d="M67872 23571
L67741 23384
" />
<path d="M67647 23571
L67647 23178
L67797 23178
L67835 23196
L67853 23215
L67872 23253
L67872 23309
L67853 23346
L67835 23365
L67797 23384
L67647 23384
" />
<path d="M68041 23365
L68172 23365
" />
<path d="M68228 23571
L68041 23571
L68041 23178
L68228 23178
" />
<path d="M68528 23365
L68397 23365
" />
<path d="M68397 23571
L68397 23178
L68585 23178
" />
<path d="M68791 23178
L68791 23271
" />
<path d="M68697 23234
L68791 23271
L68885 23234
" />
<path d="M68735 23346
L68791 23271
L68847 23346
" />
<path d="M69091 23178
L69091 23271
" />
<path d="M68997 23234
L69091 23271
L69185 23234
" />
<path d="M69035 23346
L69091 23271
L69147 23346
" />
<path d="M67872 24949
L67741 24762
" />
<path d="M67647 24949
L67647 24556
L67797 24556
L67835 24574
L67853 24593
L67872 24631
L67872 24687
L67853 24724
L67835 24743
L67797 24762
L67647 24762
" />
<path d="M68041 24743
L68172 24743
" />
<path d="M68228 24949
L68041 24949
L68041 24556
L68228 24556
" />
<path d="M68528 24743
L68397 24743
" />
<path d="M68397 24949
L68397 24556
L68585 24556
" />
<path d="M68791 24556
L68791 24649
" />
<path d="M68697 24612
L68791 24649
L68885 24612
" />
<path d="M68735 24724
L68791 24649
L68847 24724
" />
<path d="M69091 24556
L69091 24649
" />
<path d="M68997 24612
L69091 24649
L69185 24612
" />
<path d="M69035 24724
L69091 24649
L69147 24724
" />
<path d="M67872 22193
L67741 22006
" />
<path d="M67647 22193
L67647 21800
L67797 21800
L67835 21818
L67853 21837
L67872 21875
L67872 21931
L67853 21968
L67835 21987
L67797 22006
L67647 22006
" />
<path d="M68041 21987
L68172 21987
" />
<path d="M68228 22193
L68041 22193
L68041 21800
L68228 21800
" />
<path d="M68528 21987
L68397 21987
" />
<path d="M68397 22193
L68397 21800
L68585 21800
" />
<path d="M68791 21800
L68791 21893
" />
<path d="M68697 21856
L68791 21893
L68885 21856
" />
<path d="M68735 21968
L68791 21893
L68847 21968
" />
<path d="M69091 21800
L69091 21893
" />
<path d="M68997 21856
L69091 21893
L69185 21856
" />
<path d="M69035 21968
L69091 21893
L69147 21968
" />
<path d="M70256 23162
L70069 23293
" />
<path d="M70256 23387
L69863 23387
L69863 23237
L69881 23200
L69900 23181
L69938 23162
L69994 23162
L70031 23181
L70050 23200
L70069 23237
L70069 23387
" />
<path d="M70050 22994
L70050 22862
" />
<path d="M70256 22806
L70256 22994
L69863 22994
L69863 22806
" />
<path d="M70050 22506
L70050 22637
" />
<path d="M70256 22637
L69863 22637
L69863 22450
" />
<path d="M69863 22244
L69956 22244
" />
<path d="M69919 22337
L69956 22244
L69919 22150
" />
<path d="M70031 22300
L69956 22244
L70031 22187
" />
<path d="M69863 21944
L69956 21944
" />
<path d="M69919 22037
L69956 21944
L69919 21850
" />
<path d="M70031 22000
L69956 21944
L70031 21887
" />
<path d="M62467 27343
L62335 27155
" />
<path d="M62242 27343
L62242 26949
L62392 26949
L62429 26968
L62448 26987
L62467 27024
L62467 27080
L62448 27118
L62429 27137
L62392 27155
L62242 27155
" />
<path d="M62635 27137
L62767 27137
" />
<path d="M62823 27343
L62635 27343
L62635 26949
L62823 26949
" />
<path d="M63123 27137
L62992 27137
" />
<path d="M62992 27343
L62992 26949
L63179 26949
" />
<path d="M63385 26949
L63385 27043
" />
<path d="M63292 27005
L63385 27043
L63479 27005
" />
<path d="M63329 27118
L63385 27043
L63442 27118
" />
<path d="M63685 26949
L63685 27043
" />
<path d="M63592 27005
L63685 27043
L63779 27005
" />
<path d="M63629 27118
L63685 27043
L63742 27118
" />
<path d="M62467 26162
L62335 25974
" />
<path d="M62242 26162
L62242 25768
L62392 25768
L62429 25787
L62448 25806
L62467 25843
L62467 25899
L62448 25937
L62429 25956
L62392 25974
L62242 25974
" />
<path d="M62635 25956
L62767 25956
" />
<path d="M62823 26162
L62635 26162
L62635 25768
L62823 25768
" />
<path d="M63123 25956
L62992 25956
" />
<path d="M62992 26162
L62992 25768
L63179 25768
" />
<path d="M63385 25768
L63385 25862
" />
<path d="M63292 25824
L63385 25862
L63479 25824
" />
<path d="M63329 25937
L63385 25862
L63442 25937
" />
<path d="M63685 25768
L63685 25862
" />
<path d="M63592 25824
L63685 25862
L63779 25824
" />
<path d="M63629 25937
L63685 25862
L63742 25937
" />
<path d="M70256 24540
L70069 24671
" />
<path d="M70256 24765
L69863 24765
L69863 24615
L69881 24578
L69900 24559
L69938 24540
L69994 24540
L70031 24559
L70050 24578
L70069 24615
L70069 24765
" />
<path d="M70050 24371
L70050 24240
" />
<path d="M70256 24184
L70256 24371
L69863 24371
L69863 24184
" />
<path d="M70050 23884
L70050 24015
" />
<path d="M70256 24015
L69863 24015
L69863 23828
" />
<path d="M69863 23622
L69956 23622
" />
<path d="M69919 23715
L69956 23622
L69919 23528
" />
<path d="M70031 23678
L69956 23622
L70031 23565
" />
<path d="M69863 23322
L69956 23322
" />
<path d="M69919 23415
L69956 23322
L69919 23228
" />
<path d="M70031 23378
L69956 23322
L70031 23265
" />
<path d="M70256 21784
L70069 21916
" />
<path d="M70256 22009
L69863 22009
L69863 21859
L69881 21822
L69900 21803
L69938 21784
L69994 21784
L70031 21803
L70050 21822
L70069 21859
L70069 22009
" />
<path d="M70050 21616
L70050 21484
" />
<path d="M70256 21428
L70256 21616
L69863 21616
L69863 21428
" />
<path d="M70050 21128
L70050 21259
" />
<path d="M70256 21259
L69863 21259
L69863 21072
" />
<path d="M69863 20866
L69956 20866
" />
<path d="M69919 20959
L69956 20866
L69919 20772
" />
<path d="M70031 20922
L69956 20866
L70031 20809
" />
<path d="M69863 20566
L69956 20566
" />
<path d="M69919 20659
L69956 20566
L69919 20472
" />
<path d="M70031 20622
L69956 20566
L70031 20509
" />
<path d="M65026 46634
L64895 46447
" />
<path d="M64801 46634
L64801 46241
L64951 46241
L64988 46259
L65007 46278
L65026 46316
L65026 46372
L65007 46409
L64988 46428
L64951 46447
L64801 46447
" />
<path d="M65194 46428
L65326 46428
" />
<path d="M65382 46634
L65194 46634
L65194 46241
L65382 46241
" />
<path d="M65682 46428
L65551 46428
" />
<path d="M65551 46634
L65551 46241
L65738 46241
" />
<path d="M65944 46241
L65944 46334
" />
<path d="M65851 46297
L65944 46334
L66038 46297
" />
<path d="M65888 46409
L65944 46334
L66001 46409
" />
<path d="M66244 46241
L66244 46334
" />
<path d="M66151 46297
L66244 46334
L66338 46297
" />
<path d="M66188 46409
L66244 46334
L66301 46409
" />
<path d="M67388 46634
L67257 46447
" />
<path d="M67163 46634
L67163 46241
L67313 46241
L67350 46259
L67369 46278
L67388 46316
L67388 46372
L67369 46409
L67350 46428
L67313 46447
L67163 46447
" />
<path d="M67557 46428
L67688 46428
" />
<path d="M67744 46634
L67557 46634
L67557 46241
L67744 46241
" />
<path d="M68044 46428
L67913 46428
" />
<path d="M67913 46634
L67913 46241
L68100 46241
" />
<path d="M68307 46241
L68307 46334
" />
<path d="M68213 46297
L68307 46334
L68400 46297
" />
<path d="M68250 46409
L68307 46334
L68363 46409
" />
<path d="M68607 46241
L68607 46334
" />
<path d="M68513 46297
L68607 46334
L68700 46297
" />
<path d="M68550 46409
L68607 46334
L68663 46409
" />
<path d="M69553 35808
L69422 35620
" />
<path d="M69328 35808
L69328 35414
L69478 35414
L69516 35433
L69535 35451
L69553 35489
L69553 35545
L69535 35583
L69516 35601
L69478 35620
L69328 35620
" />
<path d="M69722 35601
L69853 35601
" />
<path d="M69910 35808
L69722 35808
L69722 35414
L69910 35414
" />
<path d="M70209 35601
L70078 35601
" />
<path d="M70078 35808
L70078 35414
L70266 35414
" />
<path d="M70472 35414
L70472 35508
" />
<path d="M70378 35470
L70472 35508
L70566 35470
" />
<path d="M70416 35583
L70472 35508
L70528 35583
" />
<path d="M70772 35414
L70772 35508
" />
<path d="M70678 35470
L70772 35508
L70866 35470
" />
<path d="M70716 35583
L70772 35508
L70828 35583
" />
<path d="M69553 33248
L69422 33061
" />
<path d="M69328 33248
L69328 32855
L69478 32855
L69516 32874
L69535 32892
L69553 32930
L69553 32986
L69535 33023
L69516 33042
L69478 33061
L69328 33061
" />
<path d="M69722 33042
L69853 33042
" />
<path d="M69910 33248
L69722 33248
L69722 32855
L69910 32855
" />
<path d="M70209 33042
L70078 33042
" />
<path d="M70078 33248
L70078 32855
L70266 32855
" />
<path d="M70472 32855
L70472 32949
" />
<path d="M70378 32911
L70472 32949
L70566 32911
" />
<path d="M70416 33023
L70472 32949
L70528 33023
" />
<path d="M70772 32855
L70772 32949
" />
<path d="M70678 32911
L70772 32949
L70866 32911
" />
<path d="M70716 33023
L70772 32949
L70828 33023
" />
<path d="M66797 44272
L66666 44085
" />
<path d="M66572 44272
L66572 43878
L66722 43878
L66760 43897
L66779 43916
L66797 43953
L66797 44010
L66779 44047
L66760 44066
L66722 44085
L66572 44085
" />
<path d="M66966 44066
L67097 44066
" />
<path d="M67154 44272
L66966 44272
L66966 43878
L67154 43878
" />
<path d="M67454 44066
L67322 44066
" />
<path d="M67322 44272
L67322 43878
L67510 43878
" />
<path d="M67716 43878
L67716 43972
" />
<path d="M67622 43935
L67716 43972
L67810 43935
" />
<path d="M67660 44047
L67716 43972
L67772 44047
" />
<path d="M68016 43878
L68016 43972
" />
<path d="M67922 43935
L68016 43972
L68110 43935
" />
<path d="M67960 44047
L68016 43972
L68072 44047
" />
<path d="M51752 25918
L51565 26049
" />
<path d="M51752 26143
L51359 26143
L51359 25993
L51377 25956
L51396 25937
L51434 25918
L51490 25918
L51527 25937
L51546 25956
L51565 25993
L51565 26143
" />
<path d="M51546 25749
L51546 25618
" />
<path d="M51752 25562
L51752 25749
L51359 25749
L51359 25562
" />
<path d="M51546 25262
L51546 25393
" />
<path d="M51752 25393
L51359 25393
L51359 25206
" />
<path d="M51359 25000
L51452 25000
" />
<path d="M51415 25093
L51452 25000
L51415 24906
" />
<path d="M51527 25056
L51452 25000
L51527 24943
" />
<path d="M51359 24700
L51452 24700
" />
<path d="M51415 24793
L51452 24700
L51415 24606
" />
<path d="M51527 24756
L51452 24700
L51527 24643
" />
<path d="M51752 33792
L51565 33923
" />
<path d="M51752 34017
L51359 34017
L51359 33867
L51377 33830
L51396 33811
L51434 33792
L51490 33792
L51527 33811
L51546 33830
L51565 33867
L51565 34017
" />
<path d="M51546 33623
L51546 33492
" />
<path d="M51752 33436
L51752 33623
L51359 33623
L51359 33436
" />
<path d="M51546 33136
L51546 33267
" />
<path d="M51752 33267
L51359 33267
L51359 33080
" />
<path d="M51359 32874
L51452 32874
" />
<path d="M51415 32967
L51452 32874
L51415 32780
" />
<path d="M51527 32930
L51452 32874
L51527 32817
" />
<path d="M51359 32574
L51452 32574
" />
<path d="M51415 32667
L51452 32574
L51415 32480
" />
<path d="M51527 32630
L51452 32574
L51527 32517
" />
<path d="M51752 41666
L51565 41797
" />
<path d="M51752 41891
L51359 41891
L51359 41741
L51377 41704
L51396 41685
L51434 41666
L51490 41666
L51527 41685
L51546 41704
L51565 41741
L51565 41891
" />
<path d="M51546 41497
L51546 41366
" />
<path d="M51752 41310
L51752 41497
L51359 41497
L51359 41310
" />
<path d="M51546 41010
L51546 41141
" />
<path d="M51752 41141
L51359 41141
L51359 40954
" />
<path d="M51359 40748
L51452 40748
" />
<path d="M51415 40841
L51452 40748
L51415 40654
" />
<path d="M51527 40804
L51452 40748
L51527 40691
" />
<path d="M51359 40448
L51452 40448
" />
<path d="M51415 40541
L51452 40448
L51415 40354
" />
<path d="M51527 40504
L51452 40448
L51527 40391
" />
<path d="M57545 41981
L57414 41793
" />
<path d="M57320 41981
L57320 41587
L57470 41587
L57508 41606
L57527 41625
L57545 41662
L57545 41718
L57527 41756
L57508 41775
L57470 41793
L57320 41793
" />
<path d="M57714 41775
L57845 41775
" />
<path d="M57902 41981
L57714 41981
L57714 41587
L57902 41587
" />
<path d="M58202 41775
L58070 41775
" />
<path d="M58070 41981
L58070 41587
L58258 41587
" />
<path d="M58464 41587
L58464 41681
" />
<path d="M58370 41643
L58464 41681
L58558 41643
" />
<path d="M58408 41756
L58464 41681
L58520 41756
" />
<path d="M58764 41587
L58764 41681
" />
<path d="M58670 41643
L58764 41681
L58858 41643
" />
<path d="M58708 41756
L58764 41681
L58820 41756
" />
<path d="M63532 29765
L63344 29896
" />
<path d="M63532 29990
L63138 29990
L63138 29840
L63157 29802
L63176 29783
L63213 29765
L63269 29765
L63307 29783
L63326 29802
L63344 29840
L63344 29990
" />
<path d="M63326 29596
L63326 29465
" />
<path d="M63532 29408
L63532 29596
L63138 29596
L63138 29408
" />
<path d="M63326 29108
L63326 29240
" />
<path d="M63532 29240
L63138 29240
L63138 29052
" />
<path d="M63138 28846
L63232 28846
" />
<path d="M63194 28940
L63232 28846
L63194 28752
" />
<path d="M63307 28902
L63232 28846
L63307 28790
" />
<path d="M63138 28546
L63232 28546
" />
<path d="M63194 28640
L63232 28546
L63194 28452
" />
<path d="M63307 28602
L63232 28546
L63307 28490
" />
<path d="M70926 28005
L70738 28136
" />
<path d="M70926 28230
L70532 28230
L70532 28080
L70551 28042
L70569 28023
L70607 28005
L70663 28005
L70701 28023
L70719 28042
L70738 28080
L70738 28230
" />
<path d="M70719 27836
L70719 27705
" />
<path d="M70926 27649
L70926 27836
L70532 27836
L70532 27649
" />
<path d="M70719 27349
L70719 27480
" />
<path d="M70926 27480
L70532 27480
L70532 27292
" />
<path d="M70532 27086
L70626 27086
" />
<path d="M70588 27180
L70626 27086
L70588 26992
" />
<path d="M70701 27142
L70626 27086
L70701 27030
" />
<path d="M70532 26786
L70626 26786
" />
<path d="M70588 26880
L70626 26786
L70588 26692
" />
<path d="M70701 26842
L70626 26786
L70701 26730
" />
<path d="M68941 26130
L68941 25830
" />
<path d="M69091 25980
L68791 25980
" />
<path d="M63146 29158
L62959 29290
" />
<path d="M63146 29383
L62752 29383
L62752 29233
L62771 29196
L62790 29177
L62827 29158
L62884 29158
L62921 29177
L62940 29196
L62959 29233
L62959 29383
" />
<path d="M62940 28990
L62940 28858
" />
<path d="M63146 28802
L63146 28990
L62752 28990
L62752 28802
" />
<path d="M62940 28502
L62940 28633
" />
<path d="M63146 28633
L62752 28633
L62752 28446
" />
<path d="M62752 28240
L62846 28240
" />
<path d="M62809 28333
L62846 28240
L62809 28146
" />
<path d="M62921 28296
L62846 28240
L62921 28183
" />
<path d="M62752 27940
L62846 27940
" />
<path d="M62809 28033
L62846 27940
L62809 27846
" />
<path d="M62921 27996
L62846 27940
L62921 27883
" />
<g >
</g>
</g> 
</svg>
